<svg width="32" height="32" viewBox="0 0 32 32" fill="none" xmlns="http://www.w3.org/2000/svg" xmlns:xlink="http://www.w3.org/1999/xlink">
    <defs>
        <!-- The lighting engine: A complex gradient simulating a light source on a polished surface -->
        <radialGradient id="presidential-gold-sheen" cx="50%" cy="50%" r="70%" fx="30%" fy="30%">
            <stop offset="0%" stop-color="#FFFFFF" stop-opacity="0.9" />
            <stop offset="30%" stop-color="#FEF098" stop-opacity="0.8" />
            <stop offset="70%" stop-color="#D4AF37" stop-opacity="1" />
            <stop offset="100%" stop-color="#B8860B" stop-opacity="1" />
        </radialGradient>

        <!-- The die-cast filter: A high-precision engraving effect for ultimate realism -->
        <filter id="presidential-die-cast" x="-15%" y="-15%" width="130%" height="130%">
            <!-- Darker, deeper shadow for a pronounced engraving -->
            <feOffset dx="0.6" dy="0.6" in="SourceAlpha" result="shadow-offset" />
            <feGaussianBlur stdDeviation="0.5" in="shadow-offset" result="shadow-blur" />
            <feFlood flood-color="#6E5408" flood-opacity="0.9" result="shadow-color" />
            <feComposite in="shadow-color" in2="SourceAlpha" operator="in" result="colored-shadow" />

            <!-- Sharp, crisp highlight simulating a machined edge -->
            <feOffset dx="-0.4" dy="-0.4" in="SourceAlpha" result="highlight-offset" />
            <feGaussianBlur stdDeviation="0.3" in="highlight-offset" result="highlight-blur" />
            <feFlood flood-color="#FFFFFF" flood-opacity="0.9" result="highlight-color" />
            <feComposite in="highlight-color" in2="SourceAlpha" operator="in" result="colored-highlight" />

            <!-- Merge all layers for the final effect -->
            <feMerge>
                <feMergeNode in="colored-shadow"/>
                <feMergeNode in="colored-highlight"/>
                <feMergeNode in="SourceGraphic"/>
            </feMerge>
        </filter>

        <!-- Precision path for elegantly curved text -->
        <path id="presidential-text-curve" d="M 5.5 24 A 12 12 0 0 1 26.5 24"/>
    </defs>

    <!-- Coin Body & Structure -->
    <circle cx="16" cy="16" r="16" fill="#8C6A0A" />
    <circle cx="16" cy="16" r="15.7" fill="url(#presidential-gold-sheen)" />
    <!-- Added a subtle noise texture for realism -->
    <rect width="32" height="32" fill="url(#presidential-gold-sheen)" style="mix-blend-mode: overlay;" opacity="0.1">
        <filter id="noise">
            <feTurbulence type="fractalNoise" baseFrequency="0.8" numOctaves="4" stitchTiles="stitch"/>
        </filter>
        <rect width="32" height="32" filter="url(#noise)"/>
    </rect>
    <circle cx="16" cy="16" r="14.5" fill="none" stroke="#B8860B" stroke-opacity="0.5" stroke-width="1.2"/>
    <circle cx="16" cy="16" r="13.8" fill="none" stroke="#FFFFFF" stroke-opacity="0.2" stroke-width="0.5"/>
    
    <!-- All engraved elements grouped under the master filter -->
    <g filter="url(#presidential-die-cast)">
        <g fill="#B8860B">
            <!-- Shield -->
            <path d="M7.8 9.2 C 7.8 8.2, 8.8 7.2, 9.8 6.7 L 16 4.2 L 22.2 6.7 C 23.2 7.2, 24.2 8.2, 24.2 9.2 L 24.2 15.6 C 24.2 22.6, 16 27.8, 16 27.8 C 16 27.8, 7.8 22.6, 7.8 15.6 Z"/>
            
            <!-- Ultimate Dragon -->
            <path d="M16.3,11.5c1.4-0.4,2.8,0.3,3.3,1.5c-0.9-0.4-1.8-0.3-2.6,0.4c0.4,1.4,1.6,2.3,2.9,2.3c0.5,1.3-0.4,2.7-1.7,3.2c-1.4,0.5-3.2-0.2-4.1-1.5c-0.6-1.8-0.1-4.1,2.3-5.4zm-0.5,1.5c-0.9,0.7-0.9,2,0.4,2.8m2.5-2.8c0,0.4-0.4,0.8-0.8,0.8m2.9-1.5c0.1-0.5-0.2-0.9-0.6-1.1m-2.2-0.4c-0.4,0.3-0.8,0.7-1,1.2"/>

            <!-- Crown -->
            <path d="M12.5 7.5 L 11.5 9.5 L 14.5 8.5 L 16 6.5 L 17.5 8.5 L 20.5 9.5 L 19.5 7.5 Z"/>

            <!-- Professional Serif Typography -->
            <text font-family="'Georgia', serif" font-weight="600" font-size="3.9" letter-spacing="0.05em" text-anchor="middle">
                <textPath xlink:href="#presidential-text-curve" startOffset="50%">
                    AFEF TOKEN
                </textPath>
            </text>
        </g>
    </g>
</svg>

